<?xml version="1.0" encoding="UTF-8" standalone="no"?>
<svg
   version="1.1"
   viewBox="0 0 1080 1920"
   width="1080"
   height="1920"
   xmlns:xlink="http://www.w3.org/1999/xlink"
   xmlns="http://www.w3.org/2000/svg"
   xmlns:svg="http://www.w3.org/2000/svg" >
  <defs>
<linearGradient
   spreadMethod="reflect"
   id="linearGradient1381">
      <stop style="stop-color:#000000;stop-opacity:0" offset="0.00" />
      <stop style="stop-color:#000000;stop-opacity:0" offset="0.45" />
      <stop style="stop-color:#0000ff;stop-opacity:1" offset="0.50" />
      <stop style="stop-color:#ff00ff;stop-opacity:1" offset="0.55" />
      <stop style="stop-color:#ff0000;stop-opacity:1" offset="0.60" />
      <stop style="stop-color:#ff9900;stop-opacity:1" offset="0.65" />
      <stop style="stop-color:#ffff00;stop-opacity:1" offset="0.70" />
      <stop style="stop-color:#00ff00;stop-opacity:1" offset="0.75" />
      <stop style="stop-color:#00ffff;stop-opacity:1" offset="0.80" />
      <stop style="stop-color:#0000ff;stop-opacity:1" offset="0.85" />
      <stop style="stop-color:#0000ff;stop-opacity:0" offset="0.90" />
      <stop style="stop-color:#000000;stop-opacity:0" offset="1.00" />
</linearGradient>
<linearGradient
   spreadMethod="reflect"
   id="linearGradient1">
  <stop style="stop-color:#003377;stop-opacity:1" offset="0.000" />
  <stop style="stop-color:#000011;stop-opacity:1" offset="1.000" />
</linearGradient>
    <linearGradient id="linearGradient875">
      <stop style="stop-color:#000000;stop-opacity:0" offset="0.000" />
      <stop style="stop-color:#000000;stop-opacity:0" offset="0.830" />
      <stop style="stop-color:#0000ff;stop-opacity:1" offset="0.850" />
      <stop style="stop-color:#ff00ff;stop-opacity:1" offset="0.870" />
      <stop style="stop-color:#ff0000;stop-opacity:1" offset="0.890" />
      <stop style="stop-color:#ff9900;stop-opacity:1" offset="0.910" />
      <stop style="stop-color:#ffff00;stop-opacity:1" offset="0.930" />
      <stop style="stop-color:#00ff00;stop-opacity:1" offset="0.950" />
      <stop style="stop-color:#00ffff;stop-opacity:1" offset="0.970" />
      <stop style="stop-color:#0000ff;stop-opacity:1" offset="0.990" />
      <stop style="stop-color:#0000ff;stop-opacity:0" offset="0.999" />
      <stop style="stop-color:#000000;stop-opacity:0" offset="1.000" />
    </linearGradient>
    <linearGradient id="linearGradient87b">
      <stop style="stop-color:#000000;stop-opacity:0" offset="0.00" />
      <stop style="stop-color:#000000;stop-opacity:0" offset="0.10" />
      <stop style="stop-color:#0000ff;stop-opacity:1" offset="0.20" />
      <stop style="stop-color:#ff00ff;stop-opacity:1" offset="0.30" />
      <stop style="stop-color:#ff0000;stop-opacity:1" offset="0.35" />
      <stop style="stop-color:#ff9900;stop-opacity:1" offset="0.40" />
      <stop style="stop-color:#ffff00;stop-opacity:1" offset="0.60" />
      <stop style="stop-color:#00ff00;stop-opacity:1" offset="0.70" />
      <stop style="stop-color:#00ffff;stop-opacity:1" offset="0.80" />
      <stop style="stop-color:#0000ff;stop-opacity:1" offset="0.90" />
      <stop style="stop-color:#0000ff;stop-opacity:0" offset="0.99" />
      <stop style="stop-color:#000000;stop-opacity:0" offset="1.000" />
    </linearGradient>
     <linearGradient id="blick111"
       xlink:href="#linearGradient87b"
        x1="0"
        y1="0.125"
        x2="0"
        y2="0" 
        spreadMethod="reflect">
      </linearGradient>


    <linearGradient
       xlink:href="#linearGradient1"
       x1="0"
       y1="1"
       x2="0"
       y2="0"
       id="linearGradient2"
       spreadMethod="reflect">
    </linearGradient>
    <radialGradient
       xlink:href="#linearGradient1381"
       gradientUnits="userSpaceOnUse"
       spreadMethod="reflect"
       cx="540"
       cy="1973"
       fx="540"
       fy="1973"
       r="44"
       id="radial2" />
    <radialGradient
       xlink:href="#linearGradient1381"
       gradientUnits="userSpaceOnUse"
       cx="540"
       cy="673"
       fx="540"
       fy="673"
       r="250"
       id="radial3" />
    <radialGradient
       xlink:href="#linearGradient1381"
       gradientUnits="userSpaceOnUse"
       cx="540"
       cy="273"
       fx="540"
       fy="273"
       r="22"
       id="radial4" />
    <radialGradient
       xlink:href="#linearGradient1"
       gradientUnits="userSpaceOnUse"
       cx="540"
       cy="973"
       fx="540"
       fy="973"
       r="40"
       id="radial1" />
    <radialGradient
       xlink:href="#linearGradient875"
       gradientUnits="userSpaceOnUse"
       cx="540"
       cy="673"
       fx="540"
       fy="673"
       r="100"
       id="radial31" />

    <filter
       style="color-interpolation-filters:sRGB"
       id="filter4"
       x="-2"
       y="-2"
       width="10"
       height="10">
      <feGaussianBlur stdDeviation="3" />
    </filter>
    <filter
       style="color-interpolation-filters:sRGB"
       id="filter2202"
       x="-0.6"
       y="-0.6"
       width="2"
       height="2">
      <feGaussianBlur stdDeviation="33" />
    </filter>
    <filter
       style="color-interpolation-filters:sRGB"
       id="filter5"
       x="-2"
       y="-2"
       width="10"
       height="10">
      <feGaussianBlur stdDeviation="33" />
    </filter>
  </defs>
  <rect
     style="fill:url(#linearGradient2);fill-opacity:1;stroke:none"
     width="1080"
     height="1920"
     x="0"
     y="0" />
  <rect
     style="fill:url(#radial1);fill-opacity:0.15;stroke:none"
     width="1080"
     height="1920"
     x="0"
     y="0" />
  <rect
     style="fill:url(#radial4);fill-opacity:0.09;stroke:none"
     width="1080"
     height="1920"
     x="0"
     y="0" />
  <rect
     style="fill:url(#radial3);fill-opacity:0.09;stroke:none"
     width="1080"
     height="1920"
     x="0"
     y="0" />
  <rect
     style="fill:url(#radial2);fill-opacity:0.09;stroke:none"
     width="1080"
     height="1920"
     x="0"
     y="0" />


  <rect
     style="fill:url(#blick111);fill-opacity:0.7;stroke:none;filter:url(#filter5)"
     width="100"
     height="1800"
     x="490"
     y="0" />   
  <rect
     style="fill:url(#radial31);;fill-opacity:1;stroke:none;filter:url(#filter4)"
     width="1080"
     height="1920"
     x="0"
     y="0" /> 

       <g transform="translate(314, -40) scale(0.42, 0.42)"><path
       style="fill:#ffffff;fill-opacity:0.01;stroke:#fffffb;stroke-width:1.44;stroke-linecap:square;stroke-dasharray:none;stroke-opacity:0"
       d="m 538.04552,1626.2217 c 17.9052,7.7797 57.7022,55.5666 54.5919,79.9406 -33.7488,-46.5368 -73.1187,-14.9445 -75.357,12.4614 -2.5682,31.4445 37.2123,67.1935 66.6067,61.6501 71.4677,-13.4779 47.0558,-117.5661 30.1827,-154.2196 l 26.5435,-0.3996 -14.9408,-39.3063 -41.7259,0.4686 25.1987,63.1919 c 35.24512,88.3857 -4.3127,128.0782 -35.0853,119.779 -58.7186,-15.8362 -21.6027,-91.9747 24.2652,-52.4972 0.4142,-45.9694 -27.4216,-73.5316 -36.3611,-91.2364 h 23.0173 l -14.7101,-39.3066 h -94.2385 l 14.7183,39.3066 21.7682,0.5497 c -24.913,42.7589 -56.94003,109.4913 -70.2901,164.517 l 10.6443,-165.0667 h 24.3277 l -14.8388,-39.3066 -23.2465,0.2627 -0.35584,251.3657 c -1.05469,-82.1784 86.87574,-193.8445 99.28544,-212.1543 z"
       id="path1311" /><path
       style="fill:#ffffff;fill-opacity:1;stroke:#fffffb;stroke-width:1.44;stroke-linecap:square;stroke-dasharray:none;stroke-opacity:1;opacity:1"
       d="m 541.63647,1626.2217 c -17.9052,7.7797 -57.7022,55.5666 -54.5919,79.9406 33.7488,-46.5368 73.1187,-14.9445 75.357,12.4614 2.5682,31.4445 -37.2123,67.1935 -66.6067,61.6501 -71.4677,-13.4779 -47.0558,-117.5661 -30.1827,-154.2196 l -26.5435,-0.3996 14.9408,-39.3063 41.7259,0.4686 -25.1987,63.1919 c -35.24512,88.3857 4.3127,128.0782 35.0853,119.779 58.7186,-15.8362 21.6027,-91.9747 -24.2652,-52.4972 -0.4142,-45.9694 27.4216,-73.5316 36.3611,-91.2364 h -23.0173 l 14.7101,-39.3066 h 94.2385 l -14.7183,39.3066 -21.7682,0.5497 c 24.913,42.7589 56.94003,109.4913 70.2901,164.517 l -10.6443,-165.0667 h -24.3277 l 14.8388,-39.3066 23.2465,0.2627 0.35584,251.3657 c 1.05469,-82.1784 -86.87574,-193.8445 -99.28544,-212.1543 z"
       id="path458" /></g>
</svg>
