<?xml version="1.0" encoding="UTF-8" standalone="no"?>
<svg
   width="1080"
   height="1920"
   viewBox="0 0 1080 1920"
   version="1.1"
   xmlns:xlink="http://www.w3.org/1999/xlink"
   xmlns="http://www.w3.org/2000/svg"
   xmlns:svg="http://www.w3.org/2000/svg"
   xmlns:rdf="http://www.w3.org/1999/02/22-rdf-syntax-ns#"
   xmlns:cc="http://creativecommons.org/ns#"
   xmlns:dc="http://purl.org/dc/elements/1.1/">
  <defs >
    <linearGradient id="linearGradient875">
      <stop style="stop-color:#000000;stop-opacity:0" offset="0.000" />
      <stop style="stop-color:#000000;stop-opacity:0" offset="0.910" />

      <stop style="stop-color:#0000ff;stop-opacity:1" offset="0.920" />
      <stop style="stop-color:#ff00ff;stop-opacity:1" offset="0.930" />
      <stop style="stop-color:#ff0000;stop-opacity:1" offset="0.935" />
      <stop style="stop-color:#ff9900;stop-opacity:1" offset="0.940" />
      <stop style="stop-color:#ffff00;stop-opacity:1" offset="0.960" />
      <stop style="stop-color:#00ff00;stop-opacity:1" offset="0.970" />
      <stop style="stop-color:#00ffff;stop-opacity:1" offset="0.980" />
      <stop style="stop-color:#0000ff;stop-opacity:1" offset="0.990" />

      <stop style="stop-color:#0000ff;stop-opacity:0" offset="0.999" />
      <stop style="stop-color:#000000;stop-opacity:0" offset="1.000" />
    </linearGradient>
    <radialGradient
       xlink:href="#linearGradient875"
       gradientUnits="userSpaceOnUse"
       cx="540"
       cy="175"
       fx="540"
       fy="1550"
       r="450"
       id="radial1" />
    <radialGradient
       xlink:href="#linearGradient875"
       gradientUnits="userSpaceOnUse"
       cx="540"
       cy="675"
       fx="540"
       fy="830"
       r="180"
       id="radial2" />
  </defs>
    <rect style="opacity:1;fill:#001144;stroke:none"
       width="1080"
       height="1920"
       x="0"
       y="0" />
    <rect style="opacity:0.15;fill:url(#radial1);stroke:none"
       height="1920"
       width="1080"
       y="0"
       x="0" />
    <rect style="opacity:1;fill:url(#radial2);stroke:none"
       height="1920"
       width="1080"
       y="0"
       x="0" />

  <path style="opacity:0.205;fill:none;stroke:#ffffff;stroke-width:19.8723;stroke-linecap:round;stroke-linejoin:round;stroke-dasharray:none;stroke-opacity:1"
     d="m 599.06211,618.60675 0.0232,88.26939 c -0.0232,15.52411 -12.84258,28.34322 -28.65575,28.34322 -15.81317,0 -28.6323,-12.81911 -28.6323,-28.6323 0,-15.81317 12.81913,-28.63227 28.6323,-28.64672 l -28.2151,-59.33359 -61.29898,116.86024 1.21388,-116.86024" />
  <path style="opacity:0.205;fill:none;stroke:#ffffff;stroke-width:19.8723;stroke-linecap:round;stroke-linejoin:round;stroke-dasharray:none;stroke-opacity:1"
     d="m 480.93712,735.46388 -0.0224,-88.2694 c 0.0234,-15.52411 12.84259,-28.34321 28.65577,-28.34321 15.81317,0 28.63229,12.8191 28.63229,28.6323 0,15.81317 -12.81912,28.63228 -28.6323,28.64672 l 28.21509,59.33359 61.29899,-116.86024 -1.21388,116.86024" />
  <path style="opacity:0.205;fill:none;stroke:#ffffff;stroke-width:19.8723;stroke-linecap:round;stroke-linejoin:round;stroke-dasharray:none;stroke-opacity:1"
     d="m 599.06211,735.46388 0.0232,-88.2694 c -0.0232,-15.52411 -12.84258,-28.34321 -28.65575,-28.34321 -15.81317,0 -28.6323,12.8191 -28.6323,28.6323 0,15.81317 12.81913,28.63228 28.6323,28.64672 l -28.2151,59.33359 -61.29898,-116.86024 1.21388,116.86024" />
  <path style="opacity:0.593532;fill:none;stroke:#ffffff;stroke-width:19.8723;stroke-linecap:round;stroke-linejoin:round;stroke-dasharray:none;stroke-opacity:1"
     d="m 480.93712,618.60675 -0.0224,88.26939 c 0.0234,15.52411 12.84259,28.34322 28.65577,28.34322 15.81317,0 28.63229,-12.81911 28.63229,-28.6323 0,-15.81317 -12.81912,-28.63227 -28.6323,-28.64672 l 28.21509,-59.33359 61.29899,116.86024 -1.21388,-116.86024" />


</svg>
