<?xml version="1.0" encoding="UTF-8" standalone="no"?>
<svg
   version="1.1"
   viewBox="0 0 1080 1920"
   width="1080"
   height="1920"
   xmlns:xlink="http://www.w3.org/1999/xlink"
   xmlns="http://www.w3.org/2000/svg"
   xmlns:svg="http://www.w3.org/2000/svg" >
  <defs>
<linearGradient
   x1="0.09"
   y1="0.09"
   x2="0"
   y2="0"
   spreadMethod="reflect"
   id="linearGradient1382">
  <stop style="stop-color:#001122;stop-opacity:1" offset="0.000" />
  <stop style="stop-color:#002266;stop-opacity:1" offset="0.250" />
  <stop style="stop-color:#001122;stop-opacity:1" offset="0.495" />
  <stop style="stop-color:#004488;stop-opacity:1" offset="0.495" />
  <stop style="stop-color:#004488;stop-opacity:1" offset="0.505" />
  <stop style="stop-color:#001122;stop-opacity:1" offset="0.505" />
  <stop style="stop-color:#004499;stop-opacity:1" offset="0.750" />
  <stop style="stop-color:#001122;stop-opacity:1" offset="1.000" />
</linearGradient>
    <linearGradient id="linearGradient875">
      <stop style="stop-color:#000000;stop-opacity:0" offset="0.000" />
      <stop style="stop-color:#000000;stop-opacity:0" offset="0.910" />
      <stop style="stop-color:#0000ff;stop-opacity:1" offset="0.920" />
      <stop style="stop-color:#ff00ff;stop-opacity:1" offset="0.930" />
      <stop style="stop-color:#ff0000;stop-opacity:1" offset="0.935" />
      <stop style="stop-color:#ff9900;stop-opacity:1" offset="0.940" />
      <stop style="stop-color:#ffff00;stop-opacity:1" offset="0.960" />
      <stop style="stop-color:#00ff00;stop-opacity:1" offset="0.970" />
      <stop style="stop-color:#00ffff;stop-opacity:1" offset="0.980" />
      <stop style="stop-color:#0000ff;stop-opacity:1" offset="0.990" />
      <stop style="stop-color:#0000ff;stop-opacity:0" offset="0.999" />
      <stop style="stop-color:#000000;stop-opacity:0" offset="1.000" />
    </linearGradient>
    <linearGradient id="linearGradient87b">
      <stop style="stop-color:#000000;stop-opacity:0" offset="0.00" />
      <stop style="stop-color:#000000;stop-opacity:0" offset="0.10" />
      <stop style="stop-color:#0000ff;stop-opacity:1" offset="0.20" />
      <stop style="stop-color:#ff00ff;stop-opacity:1" offset="0.30" />
      <stop style="stop-color:#ff0000;stop-opacity:1" offset="0.35" />
      <stop style="stop-color:#ff9900;stop-opacity:1" offset="0.40" />
      <stop style="stop-color:#ffff00;stop-opacity:1" offset="0.60" />
      <stop style="stop-color:#00ff00;stop-opacity:1" offset="0.70" />
      <stop style="stop-color:#00ffff;stop-opacity:1" offset="0.80" />
      <stop style="stop-color:#0000ff;stop-opacity:1" offset="0.90" />
      <stop style="stop-color:#0000ff;stop-opacity:0" offset="0.99" />
      <stop style="stop-color:#000000;stop-opacity:0" offset="1.000" />
    </linearGradient>
    <radialGradient
       xlink:href="#linearGradient875"
       gradientUnits="userSpaceOnUse"
       cx="540"
       cy="540"
       fx="540"
       fy="540"
       r="190"
       id="radial2z" />
    <radialGradient
       xlink:href="#linearGradient875"
       gradientUnits="userSpaceOnUse"
       cx="540"
       cy="540"
       fx="540"
       fy="666"
       r="166"
       id="radial3" />
    <radialGradient
       xlink:href="#linearGradient875"
       gradientUnits="userSpaceOnUse"
       cx="540"
       cy="540"
       fx="0"
       fy="0"
       r="500"
       id="radial4" />
     <linearGradient id="blick111"
       xlink:href="#linearGradient87b"
        x1="0"
        y1="1"
        x2="0"
        y2="0" >
      </linearGradient>

     <linearGradient id="linearGradient1352">
       <stop style="stop-color:#ffffff;stop-opacity:1;" offset="0" />
       <stop style="stop-color:#ffffff;stop-opacity:0;" offset="1" />
      </linearGradient>
      <linearGradient id="linearGradient1344">
        <stop style="stop-color:#ffffff;stop-opacity:1;" offset="0" />
        <stop style="stop-color:#ffffff;stop-opacity:0;" offset="1"  />
      </linearGradient>
      <radialGradient
       xlink:href="#linearGradient1344"
       id="radialGradient1346"
       cx="550"
       cy="1702"
       fx="550"
       fy="1702"
       r="101"
       gradientTransform="matrix(1,0,0,1.24134,0,-413.17508)"
       gradientUnits="userSpaceOnUse" />
      <radialGradient
       xlink:href="#linearGradient1352"
       id="radialGradient1354"
       cx="540"
       cy="1686"
       fx="540"
       fy="1686"
       r="101"
       gradientTransform="matrix(2.9086385,-0.3126361,0.26430706,2.4590052,-1478.2727,-2297.4126)"
       gradientUnits="userSpaceOnUse" />
    <filter
       style="color-interpolation-filters:sRGB"
       id="filter4"
       x="-2"
       y="-2"
       width="10"
       height="10">
      <feGaussianBlur stdDeviation="7" />
    </filter>
    <filter
       style="color-interpolation-filters:sRGB"
       id="filter5"
       x="-2"
       y="-2"
       width="10"
       height="10">
      <feGaussianBlur stdDeviation="55" />
    </filter>

  </defs>
  <rect
     style="fill:url(#linearGradient1382);fill-opacity:1;fill-rule:evenodd;stroke-width:0"
     width="1080"
     height="1920"
     x="0"
     y="0" />
  <rect
     style="fill:url(#linearGradient1382);fill-opacity:0.5;fill-rule:evenodd;stroke-width:0.95677"
     transform="rotate(90)"
     width="1920"
     height="1080"
     x="0"
     y="-1080" />
  <rect
     style="fill:url(#blick111);fill-opacity:0.9;stroke:none;filter:url(#filter5)"
     width="80"
     height="1540"
     x="500"
     y="0" />   
  <rect
     style="fill:url(#radial3);fill-opacity:1;stroke:none;filter:url(#filter4)"
     width="800"
     height="800"
     x="120"
     y="30" />     
  <rect
     style="fill:url(#radial2);fill-opacity:0.9;stroke:none"
     width="1080"
     height="1920"
     x="120"
     y="30" />    
 




  <circle
     style="fill:#ffffff;fill-opacity:0.5;stroke-width:0;filter:url(#filter5)"
     cx="540"
     cy="540"
     r="80" />
       <g transform="translate(155, -635) scale(0.7, 0.7)"><path
       style="fill:url(#radialGradient1346);fill-opacity:1;fill-rule:evenodd;stroke:#fffffb;stroke-width:1.44;stroke-linecap:square;stroke-dasharray:none;stroke-opacity:1;opacity:0.6"
       class="fil2"
       d="m 538.04552,1626.2217 c 17.9052,7.7797 57.7022,55.5666 54.5919,79.9406 -33.7488,-46.5368 -73.1187,-14.9445 -75.357,12.4614 -2.5682,31.4445 37.2123,67.1935 66.6067,61.6501 71.4677,-13.4779 47.0558,-117.5661 30.1827,-154.2196 l 26.5435,-0.3996 -14.9408,-39.3063 -41.7259,0.4686 25.1987,63.1919 c 35.24512,88.3857 -4.3127,128.0782 -35.0853,119.779 -58.7186,-15.8362 -21.6027,-91.9747 24.2652,-52.4972 0.4142,-45.9694 -27.4216,-73.5316 -36.3611,-91.2364 h 23.0173 l -14.7101,-39.3066 h -94.2385 l 14.7183,39.3066 21.7682,0.5497 c -24.913,42.7589 -56.94003,109.4913 -70.2901,164.517 l 10.6443,-165.0667 h 24.3277 l -14.8388,-39.3066 -23.2465,0.2627 -0.35584,251.3657 c -1.05469,-82.1784 86.87574,-193.8445 99.28544,-212.1543 z"
       id="path1311" /><path
       style="fill:url(#radialGradient1354);fill-rule:evenodd;stroke:#fffffb;stroke-width:1.44;fill-opacity:1;stroke-opacity:1;stroke-dasharray:none;stroke-linecap:square"
       class="fil2"
       d="m 541.63647,1626.2217 c -17.9052,7.7797 -57.7022,55.5666 -54.5919,79.9406 33.7488,-46.5368 73.1187,-14.9445 75.357,12.4614 2.5682,31.4445 -37.2123,67.1935 -66.6067,61.6501 -71.4677,-13.4779 -47.0558,-117.5661 -30.1827,-154.2196 l -26.5435,-0.3996 14.9408,-39.3063 41.7259,0.4686 -25.1987,63.1919 c -35.24512,88.3857 4.3127,128.0782 35.0853,119.779 58.7186,-15.8362 21.6027,-91.9747 -24.2652,-52.4972 -0.4142,-45.9694 27.4216,-73.5316 36.3611,-91.2364 h -23.0173 l 14.7101,-39.3066 h 94.2385 l -14.7183,39.3066 -21.7682,0.5497 c 24.913,42.7589 56.94003,109.4913 70.2901,164.517 l -10.6443,-165.0667 h -24.3277 l 14.8388,-39.3066 23.2465,0.2627 0.35584,251.3657 c 1.05469,-82.1784 -86.87574,-193.8445 -99.28544,-212.1543 z"
       id="path458" /></g>
</svg>
