<?xml version="1.0" encoding="UTF-8" standalone="no"?>
<svg
   version="1.1"
   viewBox="0 0 1080 1920"
   width="1080"
   height="1920"
   xmlns:xlink="http://www.w3.org/1999/xlink"
   xmlns="http://www.w3.org/2000/svg"
   xmlns:svg="http://www.w3.org/2000/svg" >
  <defs>
<linearGradient
   x1="0.25"
   y1="0"
   x2="0"
   y2="0"
   spreadMethod="reflect"
   id="linearGradient1382">
  <stop style="stop-color:#110000;stop-opacity:1" offset="0.000" />
  <stop style="stop-color:#000000;stop-opacity:1" offset="0.250" />
  <stop style="stop-color:#110000;stop-opacity:1" offset="0.495" />
  <stop style="stop-color:#440000;stop-opacity:1" offset="0.495" />
  <stop style="stop-color:#440000;stop-opacity:1" offset="0.505" />
  <stop style="stop-color:#110000;stop-opacity:1" offset="0.505" />
  <stop style="stop-color:#770000;stop-opacity:1" offset="0.750" />
  <stop style="stop-color:#110000;stop-opacity:1" offset="1.000" />
</linearGradient>
<radialGradient
    xlink:href="#linearGradient1382"
    gradientUnits="userSpaceOnUse"
    cx="540"
    cy="540"
    fx="540"
    fy="540"
    r="980"
    id="radialfff" />


    <linearGradient id="rainbow">
      <stop style="stop-color:#000000;stop-opacity:0" offset="0.000" />
      <stop style="stop-color:#000000;stop-opacity:0" offset="0.900" />
      <stop style="stop-color:#00ffff;stop-opacity:1" offset="0.910" />
      <stop style="stop-color:#0000ff;stop-opacity:1" offset="0.920" />
      <stop style="stop-color:#ff00ff;stop-opacity:1" offset="0.945" />
      <stop style="stop-color:#ff9900;stop-opacity:1" offset="0.950" />
      <stop style="stop-color:#ff0000;stop-opacity:1" offset="0.970" />
      <stop style="stop-color:#ff0000;stop-opacity:1" offset="0.975" />
      <stop style="stop-color:#ffff00;stop-opacity:1" offset="0.980" />
      <stop style="stop-color:#00ff00;stop-opacity:0" offset="0.999" />
      <stop style="stop-color:#000000;stop-opacity:0" offset="1.000" />
    </linearGradient>
    <linearGradient id="linearGradient876"
   x1="0"
   y1="1"
   x2="0"
   y2="0"
   spreadMethod="reflect">
      <stop style="stop-color:#000000;stop-opacity:0" offset="0.000" />
      <stop style="stop-color:#00ffff;stop-opacity:1" offset="0.200" />
      <stop style="stop-color:#0000ff;stop-opacity:1" offset="0.300" />
      <stop style="stop-color:#ff00ff;stop-opacity:1" offset="0.400" />
      <stop style="stop-color:#ff9900;stop-opacity:1" offset="0.500" />
      <stop style="stop-color:#ff0000;stop-opacity:1" offset="0.600" />
      <stop style="stop-color:#ff0000;stop-opacity:1" offset="0.700" />
      <stop style="stop-color:#ffff00;stop-opacity:1" offset="0.800" />
      <stop style="stop-color:#00ff00;stop-opacity:0" offset="0.900" />
      <stop style="stop-color:#000000;stop-opacity:0" offset="1.000" />
    </linearGradient>
    <radialGradient
       xlink:href="#rainbow"
       gradientUnits="userSpaceOnUse"
       cx="540"
       cy="540"
       fx="540"
       fy="540"
       r="190"
       id="radial2z" />
    <radialGradient
       xlink:href="#rainbow"
       gradientUnits="userSpaceOnUse"
       cx="540"
       cy="540"
       fx="540"
       fy="550"
       r="144"
       id="radial3" />
    <radialGradient
       xlink:href="#rainbow"
       gradientUnits="userSpaceOnUse"
       cx="540"
       cy="-160"
       fx="540"
       fy="20000"
       r="44"
       id="radial4" />


     <linearGradient id="linearGradient1352">
       <stop style="stop-color:#ff0000;stop-opacity:1;" offset="0" />
       <stop style="stop-color:#ff0000;stop-opacity:0;" offset="1" />
      </linearGradient>
      <linearGradient id="linearGradient1344">
        <stop style="stop-color:#ff0000;stop-opacity:1;" offset="0" />
        <stop style="stop-color:#ff0000;stop-opacity:0;" offset="1"  />
      </linearGradient>
    <filter
       style="color-interpolation-filters:sRGB"
       id="filter4"
       x="-2"
       y="-2"
       width="10"
       height="10">
      <feGaussianBlur stdDeviation="2" />
    </filter>
    <filter
       style="color-interpolation-filters:sRGB"
       id="filter5"
       x="-2"
       y="-2"
       width="10"
       height="10">
      <feGaussianBlur stdDeviation="67" />
    </filter>

  </defs>
  <rect
     style="fill:url(#linearGradient1382);fill-opacity:1;fill-rule:evenodd;stroke-width:0"
     width="1080"
     height="1920"
     x="0"
     y="0" />
  <rect
     style="fill:url(#linearGradient1382);fill-opacity:0.5;fill-rule:evenodd;stroke-width:0.9"
     transform="rotate(90)"
     width="1920"
     height="1080"
     x="0"
     y="-1080" />
  <rect
     style="fill:url(#radialfff);fill-opacity:0.59;fill-rule:evenodd;stroke-width:0"
     width="1080"
     height="1920"
     x="0"
     y="0" />
  <circle
     style="fill:#ff0000;fill-opacity:0.1;stroke-width:0;filter:url(#filter5)"
     cx="540"
     cy="540"
     r="330" />       
  <rect
     style="fill:url(#linearGradient876);fill-opacity:0.9;stroke:none;filter:url(#filter5)"
     width="60"
     height="1500"
     x="510"
     y="0" /> 
  <rect
     style="fill:url(#radial3);fill-opacity:1;stroke:none;filter:url(#filter4)"
     width="800"
     height="800"
     x="120"
     y="30" />     



    <g transform="translate(109, -25) scale(0.8, 0.8)">
    <path
       style="
       fill:url(#radialGradient1354);
       stroke:#aa0000;
       stroke-width:1;
       fill-opacity:1;
       fill:red;
       stroke-linecap:square;
       stroke-dasharray:none;
       stroke-opacity:1;
       opacity:0.99"
       class="fil2"
       d="m 539.99926,617.91563 c -10.95655,0 -19.94154,9.02744 -19.94154,19.99026 0,10.9628 8.98499,19.99172 19.94154,19.99172 10.95661,0 19.9401,-9.02892 19.9401,-19.99172 0,-10.96282 -8.98349,-19.99026 -19.9401,-19.99026 z m 0,11.32943 c 4.81236,0 8.61067,3.79955 8.61067,8.66083 0,4.86127 -3.79831,8.66229 -8.61067,8.66229 -4.81222,0 -8.61211,-3.80102 -8.61211,-8.66229 0,-0.30384 0.0153,-0.60353 0.0443,-0.8984 0.43505,-4.42299 4.05639,-7.76243 8.56785,-7.76243 z m -28.72185,22.33285 -10.96064,5.23544 c 10.207,10.13326 24.22821,16.4085 39.68248,16.4085 15.4544,0 29.47555,-6.27524 39.68254,-16.4085 l -10.96061,-5.23544 c -7.79586,6.4489 -17.79643,10.31451 -28.72192,10.31451 -10.92535,0 -20.92607,-3.86561 -28.72185,-10.31451 z m 81.66632,11.45335 v 0.11802 l -0.12832,-0.0619 c -15.31943,9.58197 -33.41035,15.13099 -52.81615,15.13099 -19.40566,0 -37.49506,-5.54902 -52.81457,-15.13099 l -0.11806,0.056 v -0.0413 l -1.86459,0.93232 -9.81448,4.68814 c 0.1151,0.0826 0.23429,0.15972 0.34962,0.24193 v 88.05235 c 3.45533,-3.03566 7.22818,-5.834 11.32943,-8.38496 v -72.58502 c 14.18438,7.73963 30.21749,12.47574 47.26791,13.34011 v 18.48403 h 5.66472 c 19.46215,0 37.59914,5.58433 52.94447,15.22097 v 12.54204 c -15.74836,-8.59397 -33.77711,-13.49501 -52.94447,-13.49501 -1.8998,0 -3.78804,0.0498 -5.66472,0.14457 v 11.35451 c 1.87616,-0.10496 3.76213,-0.16964 5.66472,-0.16964 24.49748,0 46.90672,8.83039 64.27391,23.48054 v -0.003 -87.98744 c 0.11193,-0.0798 0.22764,-0.15439 0.33928,-0.23456 l -6.38013,-3.04921 z m 0,13.01114 v 33.98677 c -14.18928,-7.7359 -30.22654,-12.48168 -47.27976,-13.34454 v -7.29769 c 17.0548,-0.86446 33.09252,-5.60194 47.27976,-13.34454 z"
       id="path458" />
    </g>
</svg>
