<?xml version="1.0" encoding="UTF-8" standalone="no"?>
<!-- Created with Inkscape (http://www.inkscape.org/) -->
<svg
   width="1080"
   height="1920"
   viewBox="0 0 1080 1920"
   version="1.1"
   xml:space="preserve"
   xmlns="http://www.w3.org/2000/svg"
   xmlns:svg="http://www.w3.org/2000/svg">
  <rect width="1080" height="1920" fill="navy" />
  <g transform="translate(0, -777)">
    <path
       style="fill:#ffffff;fill-opacity:0.11;stroke:#ffffff;stroke-width:0.3;stroke-opacity:0.91"
       d="m 486.1668,1423.9788 v -107.2044 l 53.83266,-92.1482 53.83375,92.1482 v 107.2044 h -20.86714 v -56.5725 l -22.53304,38.5721 v 18.0004 h -20.86715 v -18.0016 l -22.53193,-38.5687 v 56.5703 z m 53.83376,-50.1413 8.2788,-14.1716 -8.2788,-14.1728 -8.27991,14.1728 z m -20.97726,-36.1993 8.27881,-14.1716 -8.27881,-14.1728 -8.27991,14.1728 z m 42.06791,0 8.27991,-14.1716 -8.27991,-14.1728 -8.27881,14.1728 z m -21.09066,-35.8271 8.27881,-14.1717 -8.27881,-14.1727 -8.27991,14.1727 z" 
    />
    <path
       style="fill:#ffffff;fill-opacity:0.61;stroke:#ffffff;stroke-width:0.3;stroke-opacity:0.91"
       d="m 486.1668,1316.1163 v 107.2044 l 53.83266,92.1482 53.83375,-92.1482 v -107.2044 h -20.86714 v 56.5725 l -22.53304,-38.5721 v -18.0004 h -20.86715 v 18.0016 l -22.53193,38.5687 v -56.5703 z m 53.83376,50.1413 8.2788,14.1716 -8.2788,14.1728 -8.27991,-14.1728 z m -20.97726,36.1993 8.27881,14.1716 -8.27881,14.1728 -8.27991,-14.1728 z m 42.06791,0 8.27991,14.1716 -8.27991,14.1728 -8.27881,-14.1728 z m -21.09066,35.8271 8.27881,14.1717 -8.27881,14.1727 -8.27991,-14.1727 z" 
    />
    <path
       style="fill:#ffffff;fill-opacity:1;stroke:none"
       d="m 493.84315,1303.2756 v 114.5486 l 24.63274,43.1152 25.42,-43.9903 -21.56742,-38.1295 17.63776,-30.89 38.7097,69.3828 -42.06901,74.6635 3.95278,6.7659 45.59678,-80.924 v -114.542 h -6.76487 v 101.434 l -36.17287,-64.8333 v -36.6007 h -6.76487 v 37.1622 l -21.90653,38.3662 21.5564,38.1085 -17.64216,30.53 -17.85357,-31.4064 v -112.7605 z" 
    />
  </g>
</svg>
